<?xml version="1.0" encoding="UTF-8" standalone="no"?>
<!-- Created with Inkscape (http://www.inkscape.org/) -->

<svg
   xmlns:dc="http://purl.org/dc/elements/1.1/"
   xmlns:cc="http://creativecommons.org/ns#"
   xmlns:rdf="http://www.w3.org/1999/02/22-rdf-syntax-ns#"
   xmlns:svg="http://www.w3.org/2000/svg"
   xmlns="http://www.w3.org/2000/svg"
   xmlns:sodipodi="http://sodipodi.sourceforge.net/DTD/sodipodi-0.dtd"
   xmlns:inkscape="http://www.inkscape.org/namespaces/inkscape"
   width="210mm"
   height="297mm"
   viewBox="0 0 210 297"
   version="1.1"
   id="svg3084"
   inkscape:version="0.92.5 (2060ec1f9f, 2020-04-08)"
   sodipodi:docname="numeric_keypad.svg">
  <defs
     id="defs3078" />
  <sodipodi:namedview
     id="base"
     pagecolor="#ffffff"
     bordercolor="#666666"
     borderopacity="1.0"
     inkscape:pageopacity="0.0"
     inkscape:pageshadow="2"
     inkscape:zoom="0.0875"
     inkscape:cx="-2124.7129"
     inkscape:cy="1244.0354"
     inkscape:document-units="mm"
     inkscape:current-layer="svg3084"
     showgrid="false"
     inkscape:window-width="1414"
     inkscape:window-height="414"
     inkscape:window-x="1735"
     inkscape:window-y="162"
     inkscape:window-maximized="0" />
  <metadata
     id="metadata3081">
    <rdf:RDF>
      <cc:Work
         rdf:about="">
        <dc:format>image/svg+xml</dc:format>
        <dc:type
           rdf:resource="http://purl.org/dc/dcmitype/StillImage" />
        <dc:title></dc:title>
      </cc:Work>
    </rdf:RDF>
  </metadata>
  <g
     inkscape:label="HMI:Keypad:HMI_INT:HMI_REAL"
     id="g2432"
     style="fill-rule:evenodd;stroke-width:0.47631353"
     transform="matrix(0.88765941,0,0,0.83218073,-193.26385,-7.9459567)">
    <path
       sodipodi:nodetypes="ccccc"
       inkscape:label="Background"
       inkscape:connector-curvature="0"
       id="path2136"
       d="M 54.211099,1.2654702 H 435.73881 V 230.18209 H 54.211099 Z"
       style="color:#000000;clip-rule:nonzero;display:inline;overflow:visible;visibility:visible;opacity:0.6;isolation:auto;mix-blend-mode:normal;color-interpolation:sRGB;color-interpolation-filters:linearRGB;solid-color:#000000;solid-opacity:1;vector-effect:none;fill:#000000;fill-opacity:1;fill-rule:nonzero;stroke:none;stroke-width:0.16776976;stroke-linecap:butt;stroke-linejoin:miter;stroke-miterlimit:4;stroke-dasharray:none;stroke-dashoffset:0;stroke-opacity:1;marker:none;color-rendering:auto;image-rendering:auto;shape-rendering:auto;text-rendering:auto;enable-background:accumulate" />
    <rect
       ry="3.8152773"
       rx="3.8152773"
       y="15.77106"
       x="64.024963"
       height="30.150299"
       width="361.89996"
       id="rect2426"
       style="color:#000000;clip-rule:nonzero;display:inline;overflow:visible;visibility:visible;opacity:1;isolation:auto;mix-blend-mode:normal;color-interpolation:sRGB;color-interpolation-filters:linearRGB;solid-color:#000000;solid-opacity:1;vector-effect:none;fill:#fffff5;fill-opacity:1;fill-rule:nonzero;stroke:#202326;stroke-width:0;stroke-linecap:butt;stroke-linejoin:miter;stroke-miterlimit:4;stroke-dasharray:none;stroke-dashoffset:0;stroke-opacity:1;marker:none;color-rendering:auto;image-rendering:auto;shape-rendering:auto;text-rendering:auto;enable-background:accumulate"
       inkscape:label="Field" />
    <text
       id="text2430"
       y="37.408375"
       x="72.50132"
       style="font-style:normal;font-variant:normal;font-weight:normal;font-stretch:normal;font-size:19.0763855px;line-height:125%;font-family:sans-serif;-inkscape-font-specification:'sans-serif, Normal';font-variant-ligatures:normal;font-variant-caps:normal;font-variant-numeric:normal;font-feature-settings:normal;text-align:start;letter-spacing:0px;word-spacing:0px;writing-mode:lr-tb;text-anchor:start;fill:#000000;fill-opacity:1;stroke:none;stroke-width:0.47690967px;stroke-linecap:butt;stroke-linejoin:miter;stroke-opacity:1"
       xml:space="preserve"
       inkscape:label="Value"><tspan
         style="text-align:start;text-anchor:start;stroke-width:0.47690967px"
         y="37.408375"
         x="72.50132"
         id="tspan2428"
         sodipodi:role="line">number</tspan></text>
    <g
       style="fill-rule:evenodd;stroke-width:0.13585199"
       inkscape:label="Enter"
       id="g4947"
       transform="matrix(1.6700128,0,0,1.6700128,-826.83854,-145.60855)">
      <path
         style="opacity:1;vector-effect:none;fill:#4f4c4d;fill-opacity:1;stroke:none;stroke-width:0.10074362;stroke-linecap:butt;stroke-linejoin:miter;stroke-miterlimit:4;stroke-dasharray:none;stroke-dashoffset:0;stroke-opacity:1"
         id="path193"
         d="m 750,175 c 0,-2 -1,-3 -3,-3 h -20 c -1,0 -3,1 -3,3 v 43 c 0,1 2,2 3,2 h 20 c 2,0 3,-1 3,-2 z"
         inkscape:connector-curvature="0" />
      <path
         style="color:#000000;font-style:normal;font-variant:normal;font-weight:normal;font-stretch:normal;font-size:medium;line-height:normal;font-family:sans-serif;font-variant-ligatures:normal;font-variant-position:normal;font-variant-caps:normal;font-variant-numeric:normal;font-variant-alternates:normal;font-feature-settings:normal;text-indent:0;text-align:start;text-decoration:none;text-decoration-line:none;text-decoration-style:solid;text-decoration-color:#000000;letter-spacing:normal;word-spacing:normal;text-transform:none;writing-mode:lr-tb;direction:ltr;text-orientation:mixed;dominant-baseline:auto;baseline-shift:baseline;text-anchor:start;white-space:normal;shape-padding:0;clip-rule:nonzero;display:inline;overflow:visible;visibility:visible;opacity:1;isolation:auto;mix-blend-mode:normal;color-interpolation:sRGB;color-interpolation-filters:linearRGB;solid-color:#000000;solid-opacity:1;vector-effect:none;fill:#ffffff;fill-opacity:1;fill-rule:evenodd;stroke:none;stroke-width:1.99999988;stroke-linecap:butt;stroke-linejoin:miter;stroke-miterlimit:4;stroke-dasharray:none;stroke-dashoffset:0;stroke-opacity:1;color-rendering:auto;image-rendering:auto;shape-rendering:auto;text-rendering:auto;enable-background:accumulate"
         d="m -1244.2949,1166.5938 v 15.791 h -38.6875 v -2.9981 l -6.9199,4 6.9199,4 v -2.998 h 40.6836 v -17.7949 z"
         transform="matrix(0.28557246,0,0,0.28557246,1098.7155,-140.51013)"
         id="path6545-4"
         inkscape:connector-curvature="0" />
    </g>
    <g
       style="fill-rule:evenodd;stroke-width:0.13585199"
       inkscape:label="Keys"
       id="g4993"
       transform="matrix(1.6700128,0,0,1.6700128,-826.83854,-145.60855)">
      <g
         style="stroke-width:0.13585199"
         inkscape:label="7"
         id="g4892">
        <path
           inkscape:connector-curvature="0"
           d="m 638,120 h 20 c 2,0 3,2 3,3 v 18 c 0,2 -1,3 -3,3 h -20 c -1,0 -3,-1 -3,-3 v -18 c 0,-1 2,-3 3,-3 z"
           id="path163"
           style="opacity:1;vector-effect:none;fill:#d3d2d2;fill-opacity:1;stroke:none;stroke-width:0.10074359;stroke-linecap:butt;stroke-linejoin:miter;stroke-miterlimit:4;stroke-dasharray:none;stroke-dashoffset:0;stroke-opacity:1" />
        <text
           style="font-weight:normal;font-size:9.28803921px;font-family:Arial;fill:#2b2828;stroke-width:0.10514989"
           id="text331"
           y="129.38269"
           x="636.4165"
           transform="scale(1.0007154,0.99928514)">7</text>
      </g>
      <g
         style="stroke-width:0.13585199"
         inkscape:label="4"
         id="g4907">
        <path
           inkscape:connector-curvature="0"
           d="m 638,146 h 20 c 2,0 3,1 3,3 v 18 c 0,2 -1,3 -3,3 h -20 c -1,0 -3,-1 -3,-3 v -18 c 0,-2 2,-3 3,-3 z"
           id="path169"
           style="opacity:1;vector-effect:none;fill:#d3d2d2;fill-opacity:1;stroke:none;stroke-width:0.10074359;stroke-linecap:butt;stroke-linejoin:miter;stroke-miterlimit:4;stroke-dasharray:none;stroke-dashoffset:0;stroke-opacity:1" />
        <text
           style="font-weight:normal;font-size:9.28803921px;font-family:Arial;fill:#2b2828;stroke-width:0.10514989"
           id="text335"
           y="154.10822"
           x="636.4165"
           transform="scale(1.0007154,0.99928514)">4</text>
      </g>
      <g
         style="stroke-width:0.13585199"
         inkscape:label="1"
         id="g4922">
        <path
           inkscape:connector-curvature="0"
           d="m 638,172 h 20 c 2,0 3,1 3,3 v 17 c 0,1 -1,3 -3,3 h -20 c -1,0 -3,-2 -3,-3 v -17 c 0,-2 2,-3 3,-3 z"
           id="path175"
           style="opacity:1;vector-effect:none;fill:#d3d2d2;fill-opacity:1;stroke:none;stroke-width:0.10074359;stroke-linecap:butt;stroke-linejoin:miter;stroke-miterlimit:4;stroke-dasharray:none;stroke-dashoffset:0;stroke-opacity:1" />
        <text
           style="font-weight:normal;font-size:9.28803921px;font-family:Arial;fill:#2b2828;stroke-width:0.10514989"
           id="text339"
           y="179.82285"
           x="636.4165"
           transform="scale(1.0007154,0.99928514)">1</text>
      </g>
      <g
         style="stroke-width:0.13585199"
         inkscape:label="8"
         id="g4897">
        <path
           inkscape:connector-curvature="0"
           d="m 668,120 h 19 c 2,0 3,2 3,3 v 18 c 0,2 -1,3 -3,3 h -19 c -1,0 -3,-1 -3,-3 v -18 c 0,-1 2,-3 3,-3 z"
           id="path165"
           style="opacity:1;vector-effect:none;fill:#d3d2d2;fill-opacity:1;stroke:none;stroke-width:0.10074359;stroke-linecap:butt;stroke-linejoin:miter;stroke-miterlimit:4;stroke-dasharray:none;stroke-dashoffset:0;stroke-opacity:1" />
        <text
           style="font-weight:normal;font-size:9.28803921px;font-family:Arial;fill:#2b2828;stroke-width:0.10514989"
           id="text347"
           y="129.38269"
           x="667.07562"
           transform="scale(1.0007154,0.99928514)">8</text>
      </g>
      <g
         style="stroke-width:0.13585199"
         inkscape:label="5"
         id="g4912">
        <path
           inkscape:connector-curvature="0"
           d="m 668,146 h 19 c 2,0 3,1 3,3 v 18 c 0,2 -1,3 -3,3 h -19 c -1,0 -3,-1 -3,-3 v -18 c 0,-2 2,-3 3,-3 z"
           id="path171"
           style="opacity:1;vector-effect:none;fill:#d3d2d2;fill-opacity:1;stroke:none;stroke-width:0.10074359;stroke-linecap:butt;stroke-linejoin:miter;stroke-miterlimit:4;stroke-dasharray:none;stroke-dashoffset:0;stroke-opacity:1" />
        <text
           style="font-weight:normal;font-size:9.28803921px;font-family:Arial;fill:#2b2828;stroke-width:0.10514989"
           id="text351"
           y="154.10822"
           x="667.07562"
           transform="scale(1.0007154,0.99928514)">5</text>
      </g>
      <g
         style="stroke-width:0.13585199"
         inkscape:label="2"
         id="g4927">
        <path
           inkscape:connector-curvature="0"
           d="m 668,172 h 19 c 2,0 3,1 3,3 v 17 c 0,1 -1,3 -3,3 h -19 c -1,0 -3,-2 -3,-3 v -17 c 0,-2 2,-3 3,-3 z"
           id="path177"
           style="opacity:1;vector-effect:none;fill:#d3d2d2;fill-opacity:1;stroke:none;stroke-width:0.10074359;stroke-linecap:butt;stroke-linejoin:miter;stroke-miterlimit:4;stroke-dasharray:none;stroke-dashoffset:0;stroke-opacity:1" />
        <text
           style="font-weight:normal;font-size:9.28803921px;font-family:Arial;fill:#2b2828;stroke-width:0.10514989"
           id="text355"
           y="179.82285"
           x="667.07562"
           transform="scale(1.0007154,0.99928514)">2</text>
      </g>
      <g
         style="stroke-width:0.13585199"
         inkscape:label="9"
         id="g4902">
        <path
           inkscape:connector-curvature="0"
           d="m 697,120 h 20 c 2,0 3,2 3,3 v 18 c 0,2 -1,3 -3,3 h -20 c -1,0 -3,-1 -3,-3 v -18 c 0,-1 2,-3 3,-3 z"
           id="path167"
           style="opacity:1;vector-effect:none;fill:#d3d2d2;fill-opacity:1;stroke:none;stroke-width:0.10074359;stroke-linecap:butt;stroke-linejoin:miter;stroke-miterlimit:4;stroke-dasharray:none;stroke-dashoffset:0;stroke-opacity:1" />
        <text
           style="font-weight:normal;font-size:9.28803921px;font-family:Arial;fill:#2b2828;stroke-width:0.10514989"
           id="text363"
           y="129.38269"
           x="695.75708"
           transform="scale(1.0007154,0.99928514)">9</text>
      </g>
      <g
         style="stroke-width:0.13585199"
         inkscape:label="6"
         id="g4917">
        <path
           inkscape:connector-curvature="0"
           d="m 697,146 h 20 c 2,0 3,1 3,3 v 18 c 0,2 -1,3 -3,3 h -20 c -1,0 -3,-1 -3,-3 v -18 c 0,-2 2,-3 3,-3 z"
           id="path173"
           style="opacity:1;vector-effect:none;fill:#d3d2d2;fill-opacity:1;stroke:none;stroke-width:0.10074359;stroke-linecap:butt;stroke-linejoin:miter;stroke-miterlimit:4;stroke-dasharray:none;stroke-dashoffset:0;stroke-opacity:1" />
        <text
           style="font-weight:normal;font-size:9.28803921px;font-family:Arial;fill:#2b2828;stroke-width:0.10514989"
           id="text367"
           y="154.10822"
           x="695.75708"
           transform="scale(1.0007154,0.99928514)">6</text>
      </g>
      <g
         style="stroke-width:0.13585199"
         inkscape:label="3"
         id="g4932">
        <path
           inkscape:connector-curvature="0"
           d="m 697,172 h 20 c 2,0 3,1 3,3 v 17 c 0,1 -1,3 -3,3 h -20 c -1,0 -3,-2 -3,-3 v -17 c 0,-2 2,-3 3,-3 z"
           id="path179"
           style="opacity:1;vector-effect:none;fill:#d3d2d2;fill-opacity:1;stroke:none;stroke-width:0.10074359;stroke-linecap:butt;stroke-linejoin:miter;stroke-miterlimit:4;stroke-dasharray:none;stroke-dashoffset:0;stroke-opacity:1" />
        <text
           style="font-weight:normal;font-size:9.28803921px;font-family:Arial;fill:#2b2828;stroke-width:0.10514989"
           id="text371"
           y="179.82285"
           x="695.75708"
           transform="scale(1.0007154,0.99928514)">3</text>
      </g>
      <g
         style="stroke-width:0.13585199"
         inkscape:label="0"
         id="g4937">
        <path
           inkscape:connector-curvature="0"
           d="m 638,220 c -1,0 -3,-1 -3,-2 v -19 c 0,-1 2,-2 3,-2 h 49 c 2,0 3,1 3,2 v 19 c 0,1 -1,2 -3,2 z"
           id="path373"
           style="opacity:1;vector-effect:none;fill:#d3d2d2;fill-opacity:1;stroke:none;stroke-width:0.10074359;stroke-linecap:butt;stroke-linejoin:miter;stroke-miterlimit:4;stroke-dasharray:none;stroke-dashoffset:0;stroke-opacity:1" />
        <text
           style="font-weight:normal;font-size:9.28803921px;font-family:Arial;fill:#2b2828;stroke-width:0.10514989"
           id="text377"
           y="205.53712"
           x="636.4165"
           transform="scale(1.0007154,0.99928514)">0</text>
      </g>
    </g>
    <g
       id="g3113"
       inkscape:label="Esc"
       transform="translate(-318.22576)">
      <path
         style="opacity:1;vector-effect:none;fill:#4f4c4d;fill-opacity:1;fill-rule:evenodd;stroke:none;stroke-width:0.16824313;stroke-linecap:butt;stroke-linejoin:miter;stroke-miterlimit:4;stroke-dasharray:none;stroke-dashoffset:0;stroke-opacity:1"
         id="path167-3"
         d="m 387.26079,54.792986 h 33.40019 c 3.34,0 5.01006,3.34003 5.01006,5.010045 v 30.060225 c 0,3.340029 -1.67006,5.010032 -5.01006,5.010032 h -33.40019 c -1.67006,0 -5.01007,-1.670003 -5.01007,-5.010032 V 59.803031 c 0,-1.670015 3.34001,-5.010045 5.01007,-5.010045 z"
         inkscape:connector-curvature="0" />
      <text
         x="394.42801"
         y="78.632088"
         id="text469-4"
         style="font-weight:normal;font-size:10.63882256px;font-family:Arial;fill:#ffffff;fill-rule:evenodd;stroke-width:0.36866826"
         transform="scale(1.0007154,0.99928511)">Esc</text>
    </g>
    <g
       id="g3109"
       inkscape:label="BackSpace"
       transform="translate(0,-43.420332)">
      <path
         style="opacity:1;vector-effect:none;fill:#d3d2d2;fill-opacity:1;fill-rule:evenodd;stroke:none;stroke-width:0.16824308;stroke-linecap:butt;stroke-linejoin:miter;stroke-miterlimit:4;stroke-dasharray:none;stroke-dashoffset:0;stroke-opacity:1"
         id="path173-1"
         d="m 387.26079,98.213318 h 33.40019 c 3.34,0 5.01006,1.670013 5.01006,5.010032 v 30.06024 c 0,3.34002 -1.67006,5.01003 -5.01006,5.01003 h -33.40019 c -1.67006,0 -5.01007,-1.67001 -5.01007,-5.01003 v -30.06024 c 0,-3.340019 3.34001,-5.010032 5.01007,-5.010032 z"
         inkscape:connector-curvature="0" />
      <path
         style="color:#000000;font-style:normal;font-variant:normal;font-weight:normal;font-stretch:normal;font-size:medium;line-height:normal;font-family:sans-serif;font-variant-ligatures:normal;font-variant-position:normal;font-variant-caps:normal;font-variant-numeric:normal;font-variant-alternates:normal;font-feature-settings:normal;text-indent:0;text-align:start;text-decoration:none;text-decoration-line:none;text-decoration-style:solid;text-decoration-color:#000000;letter-spacing:normal;word-spacing:normal;text-transform:none;writing-mode:lr-tb;direction:ltr;text-orientation:mixed;dominant-baseline:auto;baseline-shift:baseline;text-anchor:start;white-space:normal;shape-padding:0;clip-rule:nonzero;display:inline;overflow:visible;visibility:visible;opacity:1;isolation:auto;mix-blend-mode:normal;color-interpolation:sRGB;color-interpolation-filters:linearRGB;solid-color:#000000;solid-opacity:1;vector-effect:none;fill:#2b2828;fill-opacity:1;fill-rule:evenodd;stroke:none;stroke-width:2;stroke-linecap:butt;stroke-linejoin:miter;stroke-miterlimit:4;stroke-dasharray:none;stroke-dashoffset:0;stroke-opacity:1;color-rendering:auto;image-rendering:auto;shape-rendering:auto;text-rendering:auto;enable-background:accumulate"
         d="m -1278.9668,1041.3047 -6.9199,4 6.9199,4 v -3 h 33.416 v -1.9981 h -33.416 z"
         transform="matrix(0.47690966,0,0,0.47690966,1008.0304,-380.26227)"
         id="path11623-1-0-2"
         inkscape:connector-curvature="0" />
    </g>
    <g
       id="g787"
       inkscape:label="Sign"
       style="fill-rule:evenodd;stroke-width:0.13585199"
       transform="matrix(1.6700128,0,0,1.6700128,-678.20742,-102.18822)">
      <path
         style="opacity:1;vector-effect:none;fill:#d3d2d2;fill-opacity:1;stroke:none;stroke-width:0.10074359;stroke-linecap:butt;stroke-linejoin:miter;stroke-miterlimit:4;stroke-dasharray:none;stroke-dashoffset:0;stroke-opacity:1"
         id="path781"
         d="m 638,120 h 20 c 2,0 3,2 3,3 v 18 c 0,2 -1,3 -3,3 h -20 c -1,0 -3,-1 -3,-3 v -18 c 0,-1 2,-3 3,-3 z"
         inkscape:connector-curvature="0" />
      <text
         x="642.1239"
         y="135.09822"
         id="text783"
         style="font-weight:normal;font-size:9.28803921px;font-family:Arial;fill:#2b2828;stroke-width:0.10514989"
         transform="scale(1.0007154,0.99928514)">+/-</text>
    </g>
    <text
       xml:space="preserve"
       style="font-style:normal;font-variant:normal;font-weight:normal;font-stretch:normal;font-size:12.31375408px;line-height:125%;font-family:sans-serif;-inkscape-font-specification:'sans-serif, Normal';font-variant-ligatures:normal;font-variant-caps:normal;font-variant-numeric:normal;font-feature-settings:normal;text-align:center;letter-spacing:0px;word-spacing:0px;writing-mode:lr-tb;text-anchor:middle;fill:#000000;fill-opacity:1;fill-rule:evenodd;stroke:none;stroke-width:0.30784383px;stroke-linecap:butt;stroke-linejoin:miter;stroke-opacity:1"
       x="252.9579"
       y="12.333653"
       id="text509"
       transform="scale(0.96824589,1.0327955)"
       inkscape:label="Info"><tspan
         sodipodi:role="line"
         id="tspan507"
         x="252.9579"
         y="12.333653"
         style="stroke-width:0.30784383px">information</tspan></text>
    <g
       transform="matrix(1.6700128,0,0,1.6700128,-826.83854,-145.60856)"
       style="fill-rule:evenodd;stroke-width:0.13585199"
       id="g4942"
       inkscape:label="NumDot">
      <path
         inkscape:connector-curvature="0"
         d="m 697,197 h 20 c 2,0 3,1 3,2 v 19 c 0,1 -1,2 -3,2 h -20 c -1,0 -3,-1 -3,-2 v -19 c 0,-1 2,-2 3,-2 z"
         id="path181"
         style="opacity:1;vector-effect:none;fill:#d3d2d2;fill-opacity:1;stroke:none;stroke-width:0.10074359;stroke-linecap:butt;stroke-linejoin:miter;stroke-miterlimit:4;stroke-dasharray:none;stroke-dashoffset:0;stroke-opacity:1" />
      <text
         style="font-weight:normal;font-size:6.96602964px;font-family:Arial;fill:#2b2828;stroke-width:0.10514989"
         id="text771"
         y="204.54802"
         x="696.7464"
         transform="scale(1.0007154,0.99928514)">.</text>
    </g>
  </g>
</svg>
