<?xml version="1.0" encoding="UTF-8" standalone="no"?>
<!-- Created with Inkscape (http://www.inkscape.org/) -->

<svg
   xmlns:dc="http://purl.org/dc/elements/1.1/"
   xmlns:cc="http://creativecommons.org/ns#"
   xmlns:rdf="http://www.w3.org/1999/02/22-rdf-syntax-ns#"
   xmlns:svg="http://www.w3.org/2000/svg"
   xmlns="http://www.w3.org/2000/svg"
   xmlns:xlink="http://www.w3.org/1999/xlink"
   xmlns:sodipodi="http://sodipodi.sourceforge.net/DTD/sodipodi-0.dtd"
   xmlns:inkscape="http://www.inkscape.org/namespaces/inkscape"
   width="210mm"
   height="297mm"
   viewBox="0 0 210 297"
   version="1.1"
   id="svg2354"
   inkscape:version="0.92.5 (2060ec1f9f, 2020-04-08)"
   sodipodi:docname="voltmeter.svg">
  <defs
     id="defs2348">
    <filter
       id="filter5708"
       inkscape:collect="always"
       style="color-interpolation-filters:sRGB">
      <feGaussianBlur
         id="feGaussianBlur5710"
         stdDeviation="28.132071"
         inkscape:collect="always" />
    </filter>
    <marker
       inkscape:stockid="SquareL"
       orient="auto"
       refY="0"
       refX="0"
       id="marker20566-2"
       style="overflow:visible"
       inkscape:isstock="true"
       inkscape:collect="always">
      <path
         inkscape:connector-curvature="0"
         id="path20564-8"
         d="M -5,-5 V 5 H 5 V -5 Z"
         style="fill:#000000;fill-opacity:1;fill-rule:evenodd;stroke:#000000;stroke-width:1.00000003pt;stroke-opacity:1"
         transform="scale(0.8)" />
    </marker>
    <marker
       inkscape:isstock="true"
       style="overflow:visible"
       id="marker23223"
       refX="0"
       refY="0"
       orient="auto"
       inkscape:stockid="Arrow1Mend"
       inkscape:collect="always">
      <path
         inkscape:connector-curvature="0"
         transform="matrix(-0.4,0,0,-0.4,-4,0)"
         style="fill:#000000;fill-opacity:1;fill-rule:evenodd;stroke:#000000;stroke-width:1.00000003pt;stroke-opacity:1"
         d="M 0,0 5,-5 -12.5,0 5,5 Z"
         id="path23221" />
    </marker>
    <linearGradient
       inkscape:collect="always"
       xlink:href="#linearGradient5712"
       id="linearGradient10503"
       gradientUnits="userSpaceOnUse"
       gradientTransform="translate(-266.78,858.86)"
       x1="-914.59003"
       y1="-906.90997"
       x2="298.10999"
       y2="276.98999" />
    <linearGradient
       id="linearGradient5712">
      <stop
         id="stop5714"
         style="stop-color:#cccccc"
         offset="0" />
      <stop
         id="stop5716"
         style="stop-color:#ffffff;stop-opacity:0"
         offset=".12299" />
      <stop
         id="stop5718"
         style="stop-color:#999999;stop-opacity:.63813"
         offset="1" />
    </linearGradient>
  </defs>
  <sodipodi:namedview
     id="base"
     pagecolor="#ffffff"
     bordercolor="#666666"
     borderopacity="1.0"
     inkscape:pageopacity="0.0"
     inkscape:pageshadow="2"
     inkscape:zoom="1.1712952"
     inkscape:cx="601.92253"
     inkscape:cy="607.41638"
     inkscape:document-units="mm"
     inkscape:current-layer="svg2354"
     showgrid="false"
     inkscape:window-width="1605"
     inkscape:window-height="1099"
     inkscape:window-x="3543"
     inkscape:window-y="375"
     inkscape:window-maximized="0" />
  <metadata
     id="metadata2351">
    <rdf:RDF>
      <cc:Work
         rdf:about="">
        <dc:format>image/svg+xml</dc:format>
        <dc:type
           rdf:resource="http://purl.org/dc/dcmitype/StillImage" />
        <dc:title />
      </cc:Work>
    </rdf:RDF>
  </metadata>
  <g
     transform="matrix(0.03023415,0,0,0.03023415,158.84668,129.93084)"
     id="g29149">
    <rect
       x="-1430.8"
       y="-352.34"
       width="2055.1001"
       height="2055.1001"
       ry="129.3"
       rx="129.3"
       style="fill:#000000"
       id="rect3007" />
    <rect
       x="-1384.5"
       y="-305.98001"
       width="1962.4"
       height="1962.4"
       ry="90.727997"
       rx="90.727997"
       style="fill:#333333"
       id="rect3777" />
    <rect
       x="-1358.2"
       y="-279.72"
       width="1909.9"
       height="1909.9"
       ry="70.525002"
       rx="70.525002"
       style="fill:#000000"
       id="rect3779" />
    <rect
       x="375.37"
       y="802.65002"
       width="97.857002"
       height="45"
       ry="22.5"
       rx="22.5"
       style="fill:#333333"
       id="rect3788" />
    <path
       inkscape:connector-curvature="0"
       style="fill:#333333"
       sodipodi:nodetypes="sssssssssss"
       d="m -1106.1,-149.32 c -67.467,0 -121.78,54.312 -121.78,121.78 v 1405.5 c 0,67.467 54.312,121.78 121.78,121.78 h 680.32 c 29.662,0 47.115,-4.0297 64.849,-21.729 l 755.83,-754.34 c 23.851,-23.803 26.352,-40.896 26.352,-72.473 v -678.83 c 0,-67.467 -54.312,-121.78 -121.78,-121.78 z"
       id="path3796" />
    <path
       d="M -208.21,1279.8 230.36,851.23 h -444.29 z"
       inkscape:connector-curvature="0"
       style="fill:#000000"
       id="path5147" />
    <path
       d="m -41.063,1048.4 -48.571,-54.286 33.571,-33.571 54.286,54.286"
       inkscape:connector-curvature="0"
       style="fill:#e6e6e6"
       id="path4263" />
    <path
       d="m -131.78,1205.5 -37.143,-36.429 11.429,-12.857 30.714,6.4286 54.286,-54.286 c -6.7698,-14.828 -2.7537,-22.791 11.428,-24.286 -18.934,-68.674 49.856,-114.43 102.86,-90 l 60.714,-60 -12.143,-30 11.429,-10 41.428,35"
       inkscape:connector-curvature="0"
       style="fill:#cccccc"
       sodipodi:nodetypes="ccccccccccc"
       id="path4265" />
    <path
       d="m -1090.6,-131.14 c -65.98,0 -119.09,53.114 -119.09,119.09 v 1374.5 c 0,65.98 53.114,119.09 119.09,119.09 h 665.31 c 29.008,0 39.174,-3.9241 56.5,-21.25 l 746.08,-745.9 c 23.302,-23.302 25.781,-31.589 25.781,-62.469 v -663.88 c 0,-65.98 -53.114,-119.09 -119.09,-119.09 h -1374.5 z M 6.1,869.06 h 189.31 l -387.34,382.16 v -178.94 c 0,-107.21 90.807,-203.22 198.03,-203.22 z"
       inkscape:connector-curvature="0"
       style="fill:#e1e1d1"
       id="rect3781" />
    <path
       inkscape:connector-curvature="0"
       transform="matrix(1.037,0,0,1.037,-262.68,-1806.5)"
       style="opacity:0.85773998;fill:#000000;filter:url(#filter5708)"
       d="m -823.78,1579.8 c -65.979,0 -119.09,53.114 -119.09,119.09 v 1374.5 c 0,51.168 31.947,94.61 77.062,111.53 -1.8213,-8.3056 -2.7812,-16.944 -2.7812,-25.813 v -1374.5 c 0,-65.979 53.114,-119.09 119.09,-119.09 h 1374.5 c 14.812,0 28.972,2.6957 42.031,7.5938 -11.729,-53.488 -59.201,-93.312 -116.31,-93.312 h -1374.5 z"
       id="path5854" />
    <path
       d="m -897.19,202.71 -1.1875,-5.5312 -30.281,-141.12 h 13.687 l 27.813,126.53 33.875,-126.53 h 13.531 l -36.906,141.47 -1.4063,5.1875 h -5.375 -8.0625 z"
       inkscape:connector-curvature="0"
       style="color:#000000;text-indent:0;text-transform:none;fill:#000000"
       sodipodi:nodetypes="cccccccccccc"
       id="path4143" />
    <path
       inkscape:connector-curvature="0"
       inkscape:transform-center-y="1.2277805"
       inkscape:transform-center-x="1026.1266"
       d="m -1081.2,1066.7 a 3.5004,3.5004 0 0 0 1.0743,6.8659 l 119.98,-0.1356 a 3.5004,3.5004 0 1 0 -0.016,-6.9996 l -119.98,0.1356 a 3.5004,3.5004 0 0 0 -1.0582,0.1337 z"
       style="color:#000000;text-indent:0;text-transform:none;fill:#000000"
       id="path3927" />
    <path
       sodipodi:nodetypes="csccsccccssccscccs"
       inkscape:connector-curvature="0"
       inkscape:transform-center-y="-84.5624"
       inkscape:transform-center-x="999.99804"
       d="m -1076.7,973.88 c -1.7172,0.1873 -3.152,1.8167 -3.1203,3.5439 0.032,1.7271 1.5251,3.3029 3.248,3.4271 l 127.18,10.755 c 1.8326,0.1672 3.6502,-1.3563 3.8058,-3.1899 0.1556,-1.8336 -1.3794,-3.6416 -3.2139,-3.7856 l -127.18,-10.755 c -0.2391,-0.023 -0.4806,-0.022 -0.7194,0 z m 160,13.54 c -1.7213,-0.1455 -3.152,1.8167 -3.1203,3.5439 0.032,1.7271 1.5251,3.3029 3.248,3.4271 l 4.4928,0.3709 c 1.8325,0.1671 3.6502,-1.3564 3.8057,-3.1899 0.1556,-1.8336 -1.3794,-3.6416 -3.2139,-3.7856 l -4.4927,-0.3709 c -0.2391,-0.023 -0.4806,-0.022 -0.7194,0 z"
       style="color:#000000;text-indent:0;text-transform:none;fill:#000000"
       id="path3959" />
    <path
       d="m -516.79,412.2 c -15.018,0 -27.219,12.201 -27.219,27.219 v 40.406 c 0,15.018 12.201,27.25 27.219,27.25 15.018,0 27.25,-12.232 27.25,-27.25 v -40.406 c 0,-15.018 -12.232,-27.219 -27.25,-27.219 z m 0,8 c 10.725,0 19.25,8.4942 19.25,19.219 v 40.406 c 0,10.725 -8.5254,19.25 -19.25,19.25 -10.724,0 -19.219,-8.5254 -19.219,-19.25 v -40.406 c 0,-10.725 8.4942,-19.219 19.219,-19.219 z"
       inkscape:connector-curvature="0"
       style="color:#000000;text-indent:0;text-transform:none;fill:#000000"
       id="rect4112" />
    <path
       d="m -444.57,412.2 c -15.018,0 -27.219,12.201 -27.219,27.219 v 40.406 c 0,15.018 12.201,27.25 27.219,27.25 15.018,0 27.25,-12.232 27.25,-27.25 v -40.406 c 0,-15.018 -12.232,-27.219 -27.25,-27.219 z m 0,8 c 10.724,0 19.25,8.4942 19.25,19.219 v 40.406 c 0,10.725 -8.5255,19.25 -19.25,19.25 -10.725,0 -19.219,-8.5254 -19.219,-19.25 v -40.406 c 0,-10.725 8.4942,-19.219 19.219,-19.219 z"
       inkscape:connector-curvature="0"
       style="color:#000000;text-indent:0;text-transform:none;fill:#000000"
       id="rect4114" />
    <path
       d="m -689.77,649.6 c -15.018,0 -27.25,12.201 -27.25,27.219 v 40.406 c 0,15.018 12.232,27.25 27.25,27.25 15.018,0 27.219,-12.232 27.219,-27.25 v -40.406 c 0,-15.018 -12.201,-27.219 -27.219,-27.219 z m 0,8 c 10.725,0 19.219,8.4942 19.219,19.219 v 40.406 c 0,10.725 -8.4942,19.25 -19.219,19.25 -10.724,0 -19.25,-8.5254 -19.25,-19.25 v -40.406 c 0,-10.725 8.5255,-19.219 19.25,-19.219 z"
       inkscape:connector-curvature="0"
       style="color:#000000;text-indent:0;text-transform:none;fill:#000000"
       id="rect4116" />
    <path
       d="m -617.55,649.6 c -15.018,0 -27.25,12.201 -27.25,27.219 v 40.406 c 0,15.018 12.232,27.25 27.25,27.25 15.018,0 27.219,-12.232 27.219,-27.25 v -40.406 c 0,-15.018 -12.201,-27.219 -27.219,-27.219 z m 0,8 c 10.724,0 19.219,8.4942 19.219,19.219 v 40.406 c 0,10.725 -8.4942,19.25 -19.219,19.25 -10.7248,0 -19.25,-8.5254 -19.25,-19.25 v -40.406 c 0,-10.725 8.5254,-19.219 19.25,-19.219 z"
       inkscape:connector-curvature="0"
       style="color:#000000;text-indent:0;text-transform:none;fill:#000000"
       id="rect4118" />
    <path
       d="m -768.21,649.57 c -14.558,0 -26.594,11.436 -26.594,25.656 a 4.0004,4.0004 0 1 0 8,0 c 0,-9.7079 8.1783,-17.656 18.594,-17.656 10.415,0 18.625,7.9483 18.625,17.656 0,3.4188 -0.3012,6.2393 -1.9687,9.125 -1.6676,2.8857 -4.8983,6.1281 -11.656,9.5625 -15.36,7.8058 -30.328,23.228 -32.812,46.125 a 4.0004,4.0004 0 0 0 3.9688,4.4375 h 45.969 a 4.0004,4.0004 0 1 0 0,-8 h -41.219 c 3.4595,-17.376 15.261,-29.122 27.688,-35.438 7.6555,-3.8905 12.332,-8.1255 14.969,-12.688 2.6363,-4.5619 3.0625,-9.1977 3.0625,-13.125 0,-14.22 -12.067,-25.656 -26.625,-25.656 z"
       inkscape:connector-curvature="0"
       style="color:#000000;text-indent:0;text-transform:none;fill:#000000"
       id="path4122" />
    <path
       d="m -8.1876,197.04 c -15.018,0 -27.219,12.201 -27.219,27.219 v 40.406 c 0,15.018 12.201,27.25 27.219,27.25 15.018,0 27.25,-12.232 27.25,-27.25 v -40.406 c 0,-15.018 -12.232,-27.219 -27.25,-27.219 z m 0,8 c 10.725,0 19.25,8.4942 19.25,19.219 v 40.406 c 0,10.725 -8.5254,19.25 -19.25,19.25 -10.724,0 -19.219,-8.5254 -19.219,-19.25 v -40.406 c 0,-10.725 8.4942,-19.219 19.219,-19.219 z"
       inkscape:connector-curvature="0"
       style="color:#000000;text-indent:0;text-transform:none;fill:#000000"
       id="rect4130" />
    <path
       d="m -102.13,197.01 a 4.0004,4.0004 0 0 0 -4,4 v 37.25 a 4.0004,4.0004 0 0 0 7.375,2.125 c 2.9991,-4.7533 11.204,-8.0625 18.344,-8.0625 10.688,0 19.25,8.648 19.25,19.625 v 12.344 c 0,10.977 -8.5616,19.625 -19.25,19.625 -7.2063,0 -15.115,-4.3265 -18.219,-9.875 a 4.0081,4.0081 0 1 0 -7,3.9063 c 4.8761,8.7154 15.069,13.969 25.219,13.969 15.054,0 27.25,-12.426 27.25,-27.625 v -12.344 c 0,-15.2 -12.196,-27.625 -27.25,-27.625 -5.9927,0 -12.456,1.4611 -17.719,4.6875 v -24 h 35.406 a 4.0004,4.0004 0 1 0 0,-8 h -39.406 z"
       inkscape:connector-curvature="0"
       style="color:#000000;text-indent:0;text-transform:none;fill:#000000"
       id="path4132" />
    <path
       d="m -984.92,1208.6 a 2.5002,2.5002 0 0 0 -1.8125,0.8437 l -7.8125,8.9063 a 2.5018,2.5018 0 1 0 3.75,3.3125 l 3.4375,-3.9063 v 39.781 a 2.5002,2.5002 0 1 0 5,0 v -46.438 a 2.5002,2.5002 0 0 0 -2.5625,-2.5 z"
       inkscape:connector-curvature="0"
       style="color:#000000;text-indent:0;text-transform:none;fill:#000000"
       id="path4159" />
    <path
       d="m -963.1,1208.6 a 2.5002,2.5002 0 0 0 -2.25,2.5 v 19.906 a 2.5002,2.5002 0 0 0 4.625,1.3125 c 1.5017,-2.3801 5.7817,-4.125 9.5,-4.125 5.5171,0 9.9062,4.4472 9.9062,10.125 v 6.5938 c 0,5.6778 -4.3891,10.125 -9.9062,10.125 -3.7197,0 -7.858,-2.2704 -9.4375,-5.0938 a 2.5041,2.5041 0 1 0 -4.375,2.4375 c 2.6869,4.8027 8.253,7.6563 13.812,7.6563 8.2458,0 14.906,-6.8081 14.906,-15.125 v -6.5938 c 0,-8.3168 -6.6604,-15.125 -14.906,-15.125 -3.0809,0 -6.3424,0.7823 -9.125,2.3438 v -11.938 h 18.562 a 2.5002,2.5002 0 1 0 0,-5 h -21.062 a 2.5002,2.5002 0 0 0 -0.25,0 z"
       inkscape:connector-curvature="0"
       style="color:#000000;text-indent:0;text-transform:none;fill:#000000"
       id="path4161" />
    <path
       d="m -972.35,1253.6 c -2.2316,0 -4.0625,1.8309 -4.0625,4.0625 0,1.973 1.4112,3.5833 3.2812,3.9375 -0.352,1.6422 -0.8243,3.5675 -1.625,6.4062 3.379,-3.3496 5.078,-6.1447 6.0625,-8.6875 0.013,-0.033 0.05,-0.061 0.062,-0.094 v -0.031 c 0.1971,-0.4759 0.3125,-0.984 0.3125,-1.5312 0,-2.2316 -1.7996,-4.0625 -4.0312,-4.0625 z"
       inkscape:connector-curvature="0"
       style="fill:#000000"
       id="path4165" />
    <path
       d="m -1077.3,1219.9 c -5.4507,0.026 -10.966,1.9221 -16,6.6563 a 2.5092,2.5092 0 1 0 3.4375,3.6562 c 5.6657,-5.3285 10.954,-6.1333 16.938,-4.875 5.9835,1.2583 12.504,4.8899 19.125,8.7188 6.6209,3.8289 13.346,7.8504 20.312,9.5312 6.9668,1.6809 14.393,0.7108 20.875,-5.2812 a 2.51,2.51 0 1 0 -3.4062,-3.6875 c -5.3695,4.9636 -10.436,5.5429 -16.312,4.125 -5.8769,-1.4179 -12.328,-5.1595 -18.969,-9 -6.6411,-3.8406 -13.471,-7.7833 -20.594,-9.2813 -1.7808,-0.3745 -3.5894,-0.5713 -5.4063,-0.5625 z"
       inkscape:connector-curvature="0"
       style="color:#000000;text-indent:0;text-transform:none;fill:#000000"
       id="path4170" />
    <path
       d="m -852.33,1185.2 c -1.653,0 -3.0458,1.0383 -3.5937,2.5 l -34.656,12.281 v -9.2812 a 2.5002,2.5002 0 0 0 -2.5312,-2.5313 2.5002,2.5002 0 0 0 -2.4688,2.5313 v 11.062 l -11.219,3.9687 a 2.5002,2.5002 0 0 0 0,4.7188 l 11.219,3.9375 v 5.1562 l -11.219,3.9688 a 2.5002,2.5002 0 0 0 0,4.7187 l 11.219,3.9688 v 5.125 l -11.219,3.9687 a 2.5002,2.5002 0 0 0 0,4.7188 l 50.875,18.031 c 0.5479,1.4617 1.9407,2.5313 3.5937,2.5313 2.1292,0 3.8438,-1.7459 3.8438,-3.875 0,-2.1292 -1.7146,-3.8438 -3.8438,-3.8438 -0.698,0 -1.3415,0.2068 -1.9062,0.5313 l -36.344,-12.906 a 2.5002,2.5002 0 0 0 0,-0.1875 v -5.4062 l 10.562,-3.75 a 2.5002,2.5002 0 0 0 0,-4.7188 l -10.562,-3.75 v -5.625 l 10.562,-3.75 a 2.5002,2.5002 0 0 0 0,-4.6875 l -10.562,-3.75 v -5.5937 l 36.344,-12.875 c 0.5647,0.3244 1.2082,0.5312 1.9062,0.5312 2.1292,0 3.8438,-1.7458 3.8438,-3.875 0,-2.1291 -1.7146,-3.8437 -3.8438,-3.8437 z m -43.25,21.844 v 2.0625 l -2.9062,-1.0312 z m 5,9.0938 2.2813,0.8125 -2.2813,0.8125 z m -5,8.6875 v 2.0625 l -2.9062,-1.0313 z m 5,9.1562 2.25,0.7813 -2.25,0.7812 z m -5,8.6563 v 2.0625 l -2.9062,-1.0313 z"
       inkscape:connector-curvature="0"
       style="color:#000000;text-indent:0;text-transform:none;fill:#000000"
       id="path4172" />
    <path
       d="m -788.35,1184.2 a 2.5002,2.5002 0 0 0 -1.7841,1.1002 l -14.719,21.974 -25.423,7.2255 a 2.5002,2.5002 0 0 0 -1.2786,3.9547 l 16.354,20.784 -0.9515,26.434 a 2.5002,2.5002 0 0 0 3.36,2.4085 l 24.799,-9.0988 24.828,9.069 a 2.5002,2.5002 0 0 0 3.3601,-2.4382 l -1.011,-26.404 16.295,-20.814 a 2.5002,2.5002 0 0 0 -1.2786,-3.9547 l -25.423,-7.2255 -14.748,-21.914 a 2.5002,2.5002 0 0 0 -2.3788,-1.1002 z m 0.2973,6.9877 13.202,19.595 a 2.5002,2.5002 0 0 0 1.3976,1.011 l 22.717,6.4524 -14.57,18.584 a 2.5002,2.5002 0 0 0 -0.5353,1.6354 l 0.8921,23.609 -22.182,-8.0879 a 2.5002,2.5002 0 0 0 -1.7246,0 l -22.182,8.1473 0.8623,-23.639 a 2.5002,2.5002 0 0 0 -0.5352,-1.6354 l -14.57,-18.554 22.688,-6.4821 a 2.5002,2.5002 0 0 0 1.3975,-1.011 l 13.143,-19.625 z"
       inkscape:connector-curvature="0"
       style="color:#000000;text-indent:0;text-transform:none;fill:#000000"
       id="path4195" />
    <path
       d="m -788.4,1216 c -4.8517,0 -8.8125,3.9608 -8.8125,8.8125 a 2.1387,2.1387 0 1 0 4.25,0 c 0,-2.5403 2.0222,-4.5312 4.5625,-4.5312 2.5403,0 4.5625,1.9909 4.5625,4.5312 0,0.6956 -0.176,1.0804 -0.9062,1.9688 -0.7302,0.8884 -1.9841,2.0898 -3.4063,3.8125 l -9.3437,11.312 a 2.1387,2.1387 0 0 0 1.6562,3.5 h 15.406 a 2.14065,2.14065 0 0 0 0,-4.2813 h -10.875 l 6.4375,-7.8125 c 1.2474,-1.511 2.4036,-2.5926 3.4062,-3.8125 1.0026,-1.2198 1.9063,-2.8108 1.9063,-4.6875 0,-4.8517 -3.992,-8.8125 -8.8438,-8.8125 z"
       inkscape:connector-curvature="0"
       style="color:#000000;text-indent:0;text-transform:none;fill:#000000"
       id="path4201" />
    <path
       d="m -719.32,1204.4 a 2.5002,2.5002 0 0 0 -2.25,2.5 v 39.656 a 2.5002,2.5002 0 0 0 2.75,2.5 h 0.031 8.5625 c 7.6375,0 13.844,-6.2375 13.844,-13.875 0,-7.6376 -6.2062,-13.844 -13.844,-13.844 h -6.3438 v -11.938 h 14.156 a 2.5002,2.5002 0 1 0 0,-5 h -16.656 a 2.5002,2.5002 0 0 0 -0.25,0 z m 2.75,21.938 h 6.3437 c 4.954,0 8.8438,3.8897 8.8438,8.8438 0,4.954 -3.8898,8.875 -8.8438,8.875 h -6.3437 v -17.719 z"
       inkscape:connector-curvature="0"
       style="color:#000000;text-indent:0;text-transform:none;fill:#000000"
       id="path4204" />
    <path
       d="m -667.07,1189.1 a 2.1387,2.1387 0 0 0 -2.125,2.1875 v 68.688 a 2.1406,2.1406 0 0 0 4.2812,0 v -68.688 A 2.1387,2.1387 0 0 0 -667.07,1189.1 Z"
       inkscape:connector-curvature="0"
       style="color:#000000;text-indent:0;text-transform:none;fill:#000000"
       id="path4213" />
    <path
       d="m -696.1,1257.9 a 2.503123,2.503123 0 1 0 0.25,5 h 57.594 a 2.5002,2.5002 0 1 0 0,-5 h -57.594 a 2.5002,2.5002 0 0 0 -0.25,0 z"
       inkscape:connector-curvature="0"
       style="color:#000000;text-indent:0;text-transform:none;fill:#000000"
       id="path4215" />
    <path
       d="m -997.61,1301.5 a 2.7908,2.7908 0 0 0 -2.5192,2.7905 v 33.331 a 2.7908,2.7908 0 1 0 5.5809,0 v -30.54 h 10.387 a 2.7908,2.7908 0 1 0 0,-5.581 h -13.177 a 2.7908,2.7908 0 0 0 -0.2713,0 z"
       inkscape:connector-curvature="0"
       style="color:#000000;text-indent:0;text-transform:none;fill:#000000"
       id="path4217" />
    <path
       d="m -967.11,1301.5 c -7.3104,0 -13.294,5.9832 -13.294,13.294 v 12.363 c 0,7.3104 5.9832,13.255 13.294,13.255 7.3104,0 13.294,-5.9445 13.294,-13.255 v -12.363 c 0,-7.3104 -5.9832,-13.294 -13.294,-13.294 z m 0,5.581 c 4.3151,0 7.7126,3.3975 7.7126,7.7126 v 12.363 c 0,4.3151 -3.3975,7.6739 -7.7126,7.6739 -4.315,0 -7.7126,-3.3588 -7.7126,-7.6739 v -12.363 c 0,-4.3151 3.3976,-7.7126 7.7126,-7.7126 z"
       inkscape:connector-curvature="0"
       style="color:#000000;text-indent:0;text-transform:none;fill:#000000"
       id="rect4219" />
    <path
       d="m -939.56,1301.5 c -7.3103,0 -13.294,5.9832 -13.294,13.294 v 12.363 c 0,7.3104 5.9833,13.255 13.294,13.255 6.1555,0 11.384,-4.1964 12.867,-9.9218 a 2.7908,2.7908 0 1 0 -5.3872,-1.3952 c -0.8578,3.3113 -3.8467,5.736 -7.4801,5.736 -4.315,0 -7.7126,-3.3588 -7.7126,-7.6739 v -12.363 c 0,-4.3151 3.3976,-7.7126 7.7126,-7.7126 3.63,0 6.5804,2.4293 7.4414,5.736 a 2.8012164,2.8012164 0 1 0 5.4259,-1.3953 c -1.4886,-5.7173 -6.7175,-9.9217 -12.867,-9.9217 z"
       inkscape:connector-curvature="0"
       style="color:#000000;text-indent:0;text-transform:none;fill:#000000"
       id="rect4221" />
    <path
       d="m -913.39,1301.5 a 2.7908,2.7908 0 0 0 -2.4804,2.8293 v 33.331 a 2.7908,2.7908 0 1 0 5.581,0 v -33.331 A 2.7908,2.7908 0 0 0 -913.39,1301.5 Z"
       inkscape:connector-curvature="0"
       style="color:#000000;text-indent:0;text-transform:none;fill:#000000"
       id="path4224" />
    <path
       d="m -921.92,1301.5 a 2.7938,2.7938 0 1 0 0.2713,5.581 h 17.131 a 2.7908,2.7908 0 1 0 0,-5.581 h -17.131 a 2.7908,2.7908 0 0 0 -0.2713,0 z"
       inkscape:connector-curvature="0"
       style="color:#000000;text-indent:0;text-transform:none;fill:#000000"
       id="path4226" />
    <path
       d="m -871.11,1301.5 c -5.4866,0 -9.9993,4.5127 -9.9993,9.9993 0,5.4866 4.5127,9.9993 9.9993,9.9993 5.4865,0 9.9992,-4.5127 9.9992,-9.9993 0,-5.4866 -4.5127,-9.9993 -9.9992,-9.9993 z m 0,5.581 c 2.4704,0 4.4183,1.9479 4.4183,4.4183 0,2.4704 -1.9479,4.4183 -4.4183,4.4183 -2.4704,0 -4.4183,-1.9479 -4.4183,-4.4183 0,-2.4704 1.9479,-4.4183 4.4183,-4.4183 z"
       inkscape:connector-curvature="0"
       style="color:#000000;text-indent:0;text-transform:none;fill:#000000"
       id="path4232" />
    <path
       d="m -871.11,1315.8 c -6.7839,0 -12.335,5.5509 -12.335,12.335 0,6.7839 5.5509,12.335 12.335,12.335 6.7839,0 12.335,-5.5509 12.335,-12.335 0,-6.7839 -5.5509,-12.335 -12.335,-12.335 z m 0,5.5506 c 3.7677,0 6.7841,3.0165 6.7841,6.7842 0,3.7677 -3.0164,6.7841 -6.7841,6.7841 -3.7677,0 -6.7842,-3.0164 -6.7842,-6.7841 0,-3.7677 3.0165,-6.7842 6.7842,-6.7842 z"
       inkscape:connector-curvature="0"
       style="color:#000000;text-indent:0;text-transform:none;fill:#000000"
       id="path4234" />
    <path
       d="m -853.24,1301.5 a 2.7948015,2.7948015 0 1 0 0.31,5.581 h 9.8055 c -4.1407,8.1507 -7.5055,18.252 -10.348,29.882 a 2.7918179,2.7918179 0 0 0 5.4259,1.3178 c 3.274,-13.394 7.1815,-24.728 11.898,-32.556 a 2.7908,2.7908 0 0 0 -2.403,-4.2245 h -14.379 a 2.7908,2.7908 0 0 0 -0.31,0 z"
       inkscape:connector-curvature="0"
       style="color:#000000;text-indent:0;text-transform:none;fill:#000000"
       id="path4236" />
    <path
       d="m -817.47,1301.5 a 2.7908,2.7908 0 0 0 -2.1704,1.1239 l -5.8135,7.7514 a 2.7908,2.7908 0 1 0 4.457,3.3331 l 0.8139,-1.0852 v 24.998 a 2.7908,2.7908 0 1 0 5.581,0 v -33.331 a 2.7908,2.7908 0 0 0 -2.868,-2.7905 z"
       inkscape:connector-curvature="0"
       style="color:#000000;text-indent:0;text-transform:none;fill:#000000"
       id="path4240" />
    <path
       d="m -797.9,1301.5 a 2.7908,2.7908 0 0 0 -2.1316,1.1239 l -5.8136,7.7514 a 2.7908,2.7908 0 1 0 4.4571,3.3331 l 0.7751,-1.0464 v 24.959 a 2.7908,2.7908 0 1 0 5.581,0 v -33.331 a 2.7908,2.7908 0 0 0 -2.868,-2.7905 z"
       inkscape:connector-curvature="0"
       style="color:#000000;text-indent:0;text-transform:none;fill:#000000"
       id="path4250" />
    <path
       d="m -726.59,1301.5 c -7.3104,0 -13.294,5.9832 -13.294,13.294 v 12.363 c 0,7.3104 5.9832,13.255 13.294,13.255 7.3104,0 13.294,-5.9445 13.294,-13.255 v -12.363 c 0,-7.3104 -5.9832,-13.294 -13.294,-13.294 z m 0,5.581 c 4.3151,0 7.7127,3.3975 7.7127,7.7126 v 12.363 c 0,4.3151 -3.3976,7.6739 -7.7127,7.6739 -4.315,0 -7.7126,-3.3588 -7.7126,-7.6739 v -12.363 c 0,-4.3151 3.3976,-7.7126 7.7126,-7.7126 z"
       inkscape:connector-curvature="0"
       style="color:#000000;text-indent:0;text-transform:none;fill:#000000"
       id="rect4252" />
    <path
       d="m -753.51,1315.8 c -6.7839,0 -12.335,5.5509 -12.335,12.335 0,6.7839 5.5509,12.335 12.335,12.335 6.7839,0 12.335,-5.5509 12.335,-12.335 0,-6.7839 -5.5509,-12.335 -12.335,-12.335 z m 0,5.5506 c 3.7677,0 6.7841,3.0165 6.7841,6.7842 0,3.7677 -3.0164,6.7841 -6.7841,6.7841 -3.7677,0 -6.7842,-3.0164 -6.7842,-6.7841 0,-3.7677 3.0165,-6.7842 6.7842,-6.7842 z"
       inkscape:connector-curvature="0"
       style="color:#000000;text-indent:0;text-transform:none;fill:#000000"
       id="path4254" />
    <path
       d="m -753.52,1301.5 c -6.7839,0 -12.325,5.5408 -12.325,12.325 v 14.262 a 2.7908,2.7908 0 1 0 5.581,0 v -14.262 c 0,-3.7677 2.976,-6.7437 6.7437,-6.7437 2.7232,0 5.1777,1.6007 6.2399,4.1082 a 2.7965,2.7965 0 1 0 5.1546,-2.1704 c -1.9302,-4.5568 -6.4457,-7.5188 -11.394,-7.5188 z"
       inkscape:connector-curvature="0"
       style="color:#000000;text-indent:0;text-transform:none;fill:#000000"
       id="path4258" />
    <path
       d="m -787.63,1317.3 a 2.7938,2.7938 0 1 0 0.2713,5.581 h 14.418 a 2.7908,2.7908 0 1 0 0,-5.581 h -14.418 a 2.7908,2.7908 0 0 0 -0.2713,0 z"
       inkscape:connector-curvature="0"
       style="color:#000000;text-indent:0;text-transform:none;fill:#000000"
       id="path4261" />
    <path
       d="m 144.24,272.53 c -6.7856,0 -12.69,3.8407 -15.594,9.5 a 2.5002,2.5002 0 1 0 4.4375,2.2812 c 2.0712,-4.0371 6.2544,-6.7812 11.156,-6.7812 6.9827,0 12.531,5.5486 12.531,12.531 v 21.344 c 0,6.9826 -5.5486,12.531 -12.531,12.531 -4.4773,0 -8.3427,-2.2743 -10.562,-5.75 a 2.5010041,2.5010041 0 1 0 -4.2187,2.6875 c 3.1089,4.8679 8.5832,8.0625 14.781,8.0625 9.6662,0 17.531,-7.8651 17.531,-17.531 v -21.344 c 0,-9.6662 -7.8651,-17.531 -17.531,-17.531 z"
       inkscape:connector-curvature="0"
       style="color:#000000;text-indent:0;text-transform:none;fill:#000000"
       id="rect4271" />
    <path
       d="m 221.24,272.53 c -9.6661,0 -17.5,7.865 -17.5,17.531 v 21.344 c 0,9.6661 7.8339,17.531 17.5,17.531 9.6662,0 17.531,-7.8651 17.531,-17.531 v -21.344 c 0,-9.6662 -7.8651,-17.531 -17.531,-17.531 z m 0,5 c 6.9827,0 12.531,5.5485 12.531,12.531 v 21.344 c 0,6.9826 -5.5486,12.531 -12.531,12.531 -6.9826,0 -12.5,-5.5486 -12.5,-12.531 v -21.344 c 0,-6.9827 5.5174,-12.531 12.5,-12.531 z"
       inkscape:connector-curvature="0"
       style="color:#000000;text-indent:0;text-transform:none;fill:#000000"
       id="rect4273" />
    <path
       d="m 169.86,272.53 a 2.503123,2.503123 0 1 0 0.25,5 h 18.156 l -12.375,17.5 a 2.5002,2.5002 0 0 0 2.3437,3.9375 c 5.7215,-0.6862 9.0208,0.5421 11.188,2.4375 2.1668,1.8954 3.3312,4.7379 3.7813,7.7187 0.4713,3.1214 -0.2842,6.6267 -1.9063,9.4063 -1.622,2.7795 -4.0115,4.7449 -6.7187,5.25 -4.475,0.8347 -10.174,-1.6848 -12.25,-5.8438 a 2.5016331,2.5016331 0 1 0 -4.4688,2.25 c 3.2375,6.4873 10.824,9.7687 17.625,8.5 4.4334,-0.827 7.9333,-3.8692 10.125,-7.625 2.1918,-3.7558 3.1946,-8.2945 2.5313,-12.688 -0.5669,-3.7543 -2.0648,-7.7957 -5.4063,-10.719 -2.4107,-2.1089 -5.7373,-3.4771 -9.9062,-3.7813 l 12.312,-17.406 a 2.5002,2.5002 0 0 0 -2.0625,-3.9375 h -22.969 a 2.5002,2.5002 0 0 0 -0.25,0 z"
       inkscape:connector-curvature="0"
       style="color:#000000;text-indent:0;text-transform:none;fill:#000000"
       id="path4275" />
    <path
       d="m 145.11,298.25 a 2.503123,2.503123 0 1 0 0.25,5 h 13.125 a 2.5002,2.5002 0 1 0 0,-5 H 145.36 a 2.5002,2.5002 0 0 0 -0.25,0 z"
       inkscape:connector-curvature="0"
       style="color:#000000;text-indent:0;text-transform:none;fill:#000000"
       id="path4281" />
    <path
       d="m 147.41,654.11 a 3.5004,3.5004 0 0 0 -3,1.9063 l -22,41.875 -75.406,87.469 a 3.5014,3.5014 0 1 0 5.3125,4.5625 l 75.688,-87.844 a 3.5004,3.5004 0 0 0 0.4687,-0.6563 l 22.125,-42.156 a 3.5004,3.5004 0 0 0 -3.1875,-5.1563 z"
       inkscape:connector-curvature="0"
       style="color:#000000;text-indent:0;text-transform:none;fill:#cc9168"
       id="path4285" />
    <path
       d="m 49.41,773.83 c -7.7494,0 -14.125,6.3443 -14.125,14.094 0,7.7494 6.3756,14.125 14.125,14.125 7.7494,0 14.094,-6.3756 14.094,-14.125 a 3.5004,3.5004 0 1 0 -7,0 c 0,3.9663 -3.1274,7.125 -7.0938,7.125 -3.9663,0 -7.125,-3.1587 -7.125,-7.125 0,-3.9663 3.1587,-7.0937 7.125,-7.0937 h 0.2813 a 3.5035,3.5035 0 1 0 0.3125,-7 c -0.1998,-0.01 -0.3938,0 -0.5938,0 z"
       inkscape:connector-curvature="0"
       style="color:#000000;text-indent:0;text-transform:none;fill:#ffffff"
       id="path4287" />
    <circle
       r="54.285713"
       cy="642.65503"
       cx="194.64856"
       style="fill:#b3b3b3"
       id="path4283" />
    <circle
       r="42.669113"
       cy="642.64874"
       cx="194.65746"
       style="fill:#808080;stroke-width:0.78601003"
       id="path4294" />
    <path
       d="m 188.35,600.96 c -20.3,3.0393 -35.875,20.541 -35.875,41.688 0,21.147 15.575,38.679 35.875,41.719 v -83.406 z m 12.625,0.031 v 83.344 c 20.284,-3.0534 35.844,-20.552 35.844,-41.688 0,-21.135 -15.56,-38.603 -35.844,-41.656 z"
       inkscape:connector-curvature="0"
       style="fill:#cccccc"
       id="path4289" />
    <path
       d="m -268.5,1124 c -1.0098,0.01 -2.0071,0.4765 -2.6563,1.25 l -75.719,87.844 c -0.1719,0.2111 -0.3191,0.4424 -0.4375,0.6875 l -34.12,26.143 c -0.8509,1.628 -0.1437,3.8835 1.4843,4.7343 1.6281,0.8509 3.8836,0.1437 4.7344,-1.4843 l 33.902,-25.768 75.469,-87.594 c 0.8866,-1.0076 1.1136,-2.5465 0.5558,-3.7672 -0.5578,-1.2207 -1.87,-2.0562 -3.212,-2.0453 z"
       inkscape:connector-curvature="0"
       style="color:#000000;text-indent:0;text-transform:none;fill:#cc9168"
       sodipodi:nodetypes="cccccscccsc"
       id="path4296" />
    <circle
       r="54.285713"
       cy="-1272.595"
       cx="413.50156"
       transform="scale(-1)"
       style="fill:#c5c5bf"
       id="path4300-2" />
    <circle
       r="42.669113"
       cy="-1272.5112"
       cx="413.50345"
       transform="scale(-1)"
       style="fill:#808080;stroke-width:0.78601003"
       id="path4302" />
    <path
       inkscape:connector-curvature="0"
       style="fill:#cccccc"
       d="m -407.2,1314.3 c 20.3,-3.0394 35.875,-20.541 35.875,-41.688 0,-21.147 -15.575,-38.679 -35.875,-41.719 v 83.406 z m -12.625,-0.031 v -83.344 c -20.284,3.0534 -35.844,20.552 -35.844,41.688 0,21.135 15.56,38.603 35.844,41.656 z"
       id="path4304" />
  </g>
  <g
     inkscape:label="HMI:Meter:0:500@/PUMP0/SLOTH,0,666"
     transform="matrix(0.57180538,0,0,0.57180538,88.118425,163.79208)"
     id="g19348">
    <desc
       id="desc132">Old Style Russian Voltmeter, from openclipart https://openclipart.org/detail/205486/voltmeter-and-ammeter</desc>
    <path
       inkscape:label="range"
       sodipodi:open="true"
       d="M 69.660373,-2.4694091 A 54.660004,54.024006 0 0 1 124.19821,-56.449318"
       sodipodi:end="4.7101543"
       sodipodi:start="3.1424064"
       sodipodi:ry="54.024006"
       sodipodi:rx="54.660004"
       sodipodi:cy="-2.4254472"
       sodipodi:cx="124.32036"
       sodipodi:type="arc"
       id="path19332"
       style="color:#000000;clip-rule:nonzero;display:inline;overflow:visible;visibility:visible;opacity:1;isolation:auto;mix-blend-mode:normal;color-interpolation:sRGB;color-interpolation-filters:linearRGB;solid-color:#000000;solid-opacity:1;fill:none;fill-opacity:1;fill-rule:nonzero;stroke:none;stroke-width:1.38814712;stroke-miterlimit:4;stroke-dasharray:none;stroke-dashoffset:0;stroke-opacity:1;marker:none;color-rendering:auto;image-rendering:auto;shape-rendering:auto;text-rendering:auto;enable-background:accumulate" />
    <path
       inkscape:label="needle"
       sodipodi:nodetypes="cc"
       inkscape:connector-curvature="0"
       id="path19334"
       d="M 123.16695,-3.4226979 70.419817,-6.3833915"
       style="fill:none;fill-rule:evenodd;stroke:#000000;stroke-width:0.92543143;stroke-linecap:butt;stroke-linejoin:miter;stroke-miterlimit:4;stroke-dasharray:none;stroke-dashoffset:29.63333321;stroke-opacity:1;marker-start:url(#marker20566-2);marker-end:url(#marker23223)" />
  </g>
  <g
     transform="matrix(0.03023415,0,0,0.03023415,158.84668,129.93084)"
     id="g24628">
    <path
       d="m 111.68,388.94 2.4663,1.2855 71.607,37.323 2.4386,1.2711 2.4387,-1.2711 71.607,-37.323 2.4663,-1.2855 -2.4386,-1.271 -71.607,-37.323 -2.4664,-1.2855 -2.4663,1.2855 -71.607,37.323 z m 9.81,0 66.702,-34.766 66.73,34.78 -66.702,34.766 -66.73,-34.781 z"
       inkscape:connector-curvature="0"
       style="color:#000000;text-indent:0;text-transform:none;fill:#000000"
       id="rect4358" />
    <path
       d="m 174.86,371.46 -2.2812,1.375 -11.406,6.9687 -0.7187,0.4375 v 0.8438 4.4687 h 3 v -3.625 l 8.4062,-5.125 v 9.5313 l -3.5937,3.8125 -0.9375,1.0312 0.9375,1.0313 3.5937,3.8125 v 9.5312 l -8.4062,-5.125 v -3.625 h -3 v 4.4688 0.8437 l 0.7187,0.4375 11.406,6.9688 2.2812,1.375 v -2.6563 -12.812 -0.5937 l -0.4062,-0.4375 -3.0313,-3.2188 3.0313,-3.25 0.4062,-0.4375 v -0.5937 -12.781 -2.6562 z"
       inkscape:connector-curvature="0"
       style="color:#000000;text-indent:0;text-transform:none;fill:#000000"
       id="path4362" />
    <path
       d="m 181.18,365.18 v 48.594 h 3 V 365.18 Z m 11.062,0 v 48.594 h 3 V 365.18 Z"
       inkscape:connector-curvature="0"
       style="color:#000000;text-indent:0;text-transform:none;fill:#000000"
       id="path4366" />
    <path
       d="m 192.36,377.09 -11.062,24.469 2.7188,1.2188 11.094,-24.469 -2.75,-1.2187 z"
       inkscape:connector-curvature="0"
       style="color:#000000;text-indent:0;text-transform:none;fill:#000000"
       id="path4369" />
    <path
       d="m 200.8,368.12 v 2.625 37.5 h 3 v -34.906 l 8,4.5937 v 22.969 h 3 v -23.812 -0.875 l -0.75,-0.4375 -11,-6.3438 -2.25,-1.3125 z"
       inkscape:connector-curvature="0"
       style="color:#000000;text-indent:0;text-transform:none;fill:#000000"
       id="path4371" />
    <path
       d="m 141.52,456.11 c -4.2082,0 -7.5312,3.6567 -7.5312,8 a 1.5002,1.5002 0 1 0 3,0 c 0,-2.8368 2.0679,-5 4.5312,-5 2.4633,0 4.5313,2.1632 4.5313,5 0,1.0172 -0.081,1.842 -0.5,2.6562 -0.419,0.8143 -1.2183,1.7196 -2.9688,2.7188 -4.2189,2.4083 -8.2687,7.139 -8.9375,14.062 a 1.5002,1.5002 0 0 0 1.5,1.625 h 12.281 a 1.5002,1.5002 0 1 0 0,-3 H 137.02 c 1.0026,-4.93 3.9357,-8.3089 7.0625,-10.094 2.1,-1.1987 3.4254,-2.517 4.1563,-3.9375 0.7308,-1.4205 0.8125,-2.8442 0.8125,-4.0312 0,-4.3433 -3.3231,-8 -7.5313,-8 z"
       inkscape:connector-curvature="0"
       style="color:#000000;text-indent:0;text-transform:none;fill:#000000"
       id="path4373" />
    <path
       d="m 191.63,456.12 a 1.5002,1.5002 0 0 0 -1.0625,0.625 l -12.656,18.5 a 1.5002,1.5002 0 0 0 1.2188,2.3438 h 11.188 v 6.0625 a 1.5002,1.5002 0 1 0 3,0 v -6.0625 h 0.5312 a 1.5002,1.5002 0 1 0 0,-3 h -0.5312 v -16.969 a 1.5002,1.5002 0 0 0 -1.6875,-1.5 z m -1.3125,6.3125 v 12.156 h -8.3125 z"
       inkscape:connector-curvature="0"
       style="color:#000000;text-indent:0;text-transform:none;fill:#000000"
       id="path4157-8" />
    <path
       d="m 260.25,456.14 a 1.5002,1.5002 0 0 0 -1.1875,1.5 v 11.156 a 1.5002,1.5002 0 0 0 2.75,0.8125 c 0.8305,-1.2895 3.2878,-2.2812 5.4062,-2.2812 3.1378,0 5.5938,2.446 5.5938,5.5625 v 3.7187 c 0,3.1165 -2.456,5.5625 -5.5938,5.5625 -2.1156,0 -4.4947,-1.271 -5.375,-2.8125 a 1.5002,1.5002 0 1 0 -2.5937,1.5 c 1.5623,2.7359 4.7718,4.3125 7.9687,4.3125 4.7418,0 8.5938,-3.8296 8.5938,-8.5625 v -3.7187 c 0,-4.7328 -3.852,-8.5625 -8.5938,-8.5625 -1.7311,0 -3.5751,0.4087 -5.1562,1.25 v -6.4375 h 10.562 a 1.5002,1.5002 0 1 0 0,-3 h -12.062 a 1.5002,1.5002 0 0 0 -0.3125,0 z"
       inkscape:connector-curvature="0"
       style="color:#000000;text-indent:0;text-transform:none;fill:#000000"
       id="path4397" />
    <path
       d="m 139.49,518.96 a 1.5002,1.5002 0 0 0 -1.1875,0.625 l -4.4687,6.0625 a 1.5002,1.5002 0 1 0 2.4062,1.7812 l 1.7813,-2.4062 v 21.5 a 1.5002,1.5002 0 1 0 3,0 v -26.062 a 1.5002,1.5002 0 0 0 -1.5313,-1.5 z"
       inkscape:connector-curvature="0"
       style="color:#000000;text-indent:0;text-transform:none;fill:#000000"
       id="path4250-1" />
    <path
       d="m 177.16,530.1 c -4.9217,0 -8.9328,4.0208 -8.9328,8.9543 0,4.9336 4.0111,8.9544 8.9328,8.9544 4.9217,0 8.9329,-4.0208 8.9329,-8.9544 0,-4.9335 -4.0112,-8.9543 -8.9329,-8.9543 z m 0,3.0116 c 3.3023,0 5.9286,2.6325 5.9286,5.9427 0,3.3103 -2.6263,5.983 -5.9286,5.983 -3.3023,0 -5.9285,-2.6727 -5.9285,-5.983 0,-3.3102 2.6262,-5.9427 5.9285,-5.9427 z"
       inkscape:connector-curvature="0"
       style="color:#000000;text-indent:0;text-transform:none;fill:#000000"
       id="path4254-5" />
    <path
       d="m 177.15,518.96 c -4.9246,0 -8.9375,4.0381 -8.9375,8.9687 v 11.125 a 1.5002,1.5002 0 1 0 3,0 v -11.125 c 0,-3.3131 2.6381,-5.9687 5.9375,-5.9687 2.3902,0 4.5663,1.4467 5.5,3.6562 a 1.5002,1.5002 0 1 0 2.75,-1.1875 c -1.3986,-3.3097 -4.6606,-5.4687 -8.25,-5.4687 z"
       inkscape:connector-curvature="0"
       style="color:#000000;text-indent:0;text-transform:none;fill:#000000"
       id="path4258-9" />
    <path
       d="m 154.3,536.89 c 4.9217,0 8.9328,-4.0208 8.9328,-8.9543 0,-4.9335 -4.0111,-8.9543 -8.9328,-8.9543 -4.9217,0 -8.9329,4.0208 -8.9329,8.9543 0,4.9335 4.0112,8.9543 8.9329,8.9543 z m 0,-3.0115 c -3.3024,0 -5.9286,-2.6326 -5.9286,-5.9428 0,-3.3103 2.6262,-5.9829 5.9286,-5.9829 3.3023,0 5.9285,2.6726 5.9285,5.9829 0,3.3102 -2.6262,5.9428 -5.9285,5.9428 z"
       inkscape:connector-curvature="0"
       style="color:#000000;text-indent:0;text-transform:none;fill:#000000"
       id="path4446" />
    <path
       d="m 161.74,526.4 a 1.5002,1.5002 0 0 0 -1.5,1.5312 v 11.125 c 0,3.3132 -2.6381,5.9688 -5.9375,5.9688 -2.3902,0 -4.535,-1.4155 -5.4687,-3.625 a 1.5060236,1.5060236 0 1 0 -2.7813,1.1562 c 1.3986,3.3097 4.6606,5.4688 8.25,5.4688 4.9246,0 8.9375,-4.0382 8.9375,-8.9688 v -11.125 a 1.5002,1.5002 0 0 0 -1.5,-1.5312 z"
       inkscape:connector-curvature="0"
       style="color:#000000;text-indent:0;text-transform:none;fill:#000000"
       id="path4448" />
    <path
       d="m 225.02,523.02 a 1.5002,1.5002 0 0 0 -1.3438,1.5 v 18.562 a 1.5002,1.5002 0 1 0 3,0 V 526.02 h 7.7813 a 1.5002,1.5002 0 1 0 0,-3 h -9.2813 a 1.5002,1.5002 0 0 0 -0.1562,0 z"
       inkscape:connector-curvature="0"
       style="color:#000000;text-indent:0;text-transform:none;fill:#000000"
       id="path4458" />
    <path
       d="m -268.26,1141.4 c 7.7494,0 14.125,-6.3444 14.125,-14.094 0,-7.7494 -6.3756,-14.125 -14.125,-14.125 -7.7494,0 -14.094,6.3756 -14.094,14.125 a 3.5004,3.5004 0 1 0 7,0 c 0,-3.9663 3.1275,-7.125 7.0938,-7.125 3.9663,0 7.125,3.1587 7.125,7.125 0,3.9664 -3.1587,7.0938 -7.125,7.0938 h -0.2813 a 3.5035,3.5035 0 1 0 -0.3125,7 c 0.1999,0.01 0.3938,0 0.5938,0 z"
       inkscape:connector-curvature="0"
       style="color:#000000;text-indent:0;text-transform:none;fill:#ffffff"
       id="path4298" />
    <rect
       x="178.94"
       y="1014.8"
       width="294.29001"
       height="45"
       ry="22.5"
       rx="22.5"
       style="fill:#333333"
       id="rect3790" />
    <path
       d="m 183.75,1122.6 c -65.126,0 -119.22,47.238 -129.91,109.31 h -70.969 c -12.465,0 -22.5,10.035 -22.5,22.5 0,12.465 10.035,22.5 22.5,22.5 H 53.84 c 10.674,62.09 64.77,109.34 129.91,109.34 65.138,0 119.23,-47.252 129.91,-109.34 h 137.06 c 12.465,0 22.5,-10.035 22.5,-22.5 0,-12.465 -10.035,-22.5 -22.5,-22.5 H 313.66 c -10.69,-62.1 -64.81,-109.3 -129.91,-109.3 z"
       inkscape:connector-curvature="0"
       style="fill:#333333"
       id="rect3792" />
    <path
       sodipodi:start="0"
       sodipodi:end="6.2776887"
       sodipodi:cx="450.52805"
       sodipodi:cy="401.31888"
       transform="matrix(0.67433,0,0,0.67433,-120.05,983.82)"
       sodipodi:open="true"
       d="M 582.35295,401.31888 A 131.82491,131.82491 0 0 1 450.70919,533.14366 131.82491,131.82491 0 0 1 318.70364,401.68117 131.82491,131.82491 0 0 1 449.9846,269.49509 131.82491,131.82491 0 0 1 582.35096,400.59429"
       sodipodi:type="arc"
       style="fill:#000000"
       sodipodi:ry="131.82491"
       sodipodi:rx="131.82491"
       id="path3802" />
    <path
       d="m 183.75,1175.6 c -43.516,0 -78.781,35.266 -78.781,78.781 0,7.6898 1.1023,15.13 3.1563,22.156 l 145.66,-58.188 c -13.09,-25.386 -39.524,-42.75 -70.031,-42.75 z m 75.625,56.656 -145.69,58.188 c 13.086,25.38 39.541,42.75 70.062,42.75 43.516,0 78.781,-35.297 78.781,-78.812 v -0.4062 c -0.041,-7.535 -1.1424,-14.828 -3.1562,-21.719 z"
       inkscape:connector-curvature="0"
       style="fill:#333333"
       id="path3804" />
    <rect
       x="-236.78"
       y="1431.9"
       width="710"
       height="45"
       ry="22.5"
       rx="22.5"
       style="fill:#333333"
       id="rect3794" />
    <path
       inkscape:connector-curvature="0"
       style="color:#000000;text-indent:0;text-transform:none;fill:#000000"
       d="m 64.543,197.04 c -15.018,0 -27.219,12.201 -27.219,27.219 v 40.406 c 0,15.018 12.2,27.25 27.219,27.25 15.018,0 27.25,-12.232 27.25,-27.25 v -40.406 c 0,-15.018 -12.232,-27.219 -27.25,-27.219 z m 0,8 c 10.725,0 19.25,8.4942 19.25,19.219 v 40.406 c 0,10.725 -8.5254,19.25 -19.25,19.25 -10.724,0 -19.219,-8.5254 -19.219,-19.25 v -40.406 c 0,-10.725 8.4942,-19.219 19.219,-19.219 z"
       id="path5724" />
    <path
       inkscape:connector-curvature="0"
       style="color:#000000;text-indent:0;text-transform:none;fill:#000000"
       d="m -608.11,412.19 a 4.2093,4.2093 0 1 0 0.4204,8.408 h 30.531 l -20.81,29.428 a 4.2044,4.2044 0 0 0 3.9412,6.6213 c 9.6213,-1.1538 15.169,0.9116 18.813,4.0989 3.6435,3.1873 5.6017,7.9672 6.3585,12.98 0.7925,5.2489 -0.4779,11.143 -3.2056,15.818 -2.7276,4.6741 -6.7457,7.9791 -11.298,8.8283 -7.525,1.4038 -17.109,-2.8331 -20.6,-9.8268 a 4.2067,4.2067 0 0 0 -7.5146,3.7836 c 5.4441,10.909 18.201,16.427 29.638,14.294 7.4551,-1.3908 13.34,-6.5064 17.026,-12.822 3.6857,-6.3157 5.3719,-13.948 4.2565,-21.335 -0.9532,-6.3133 -3.4721,-13.109 -9.0911,-18.025 -4.0538,-3.5462 -9.6478,-5.8469 -16.658,-6.3585 l 20.705,-29.27 a 4.2044,4.2044 0 0 0 -3.4683,-6.6213 h -38.624 a 4.2044,4.2044 0 0 0 -0.4204,0 z"
       id="path5726" />
    <path
       inkscape:connector-curvature="0"
       style="color:#000000;text-indent:0;text-transform:none;fill:#000000"
       d="m -304.56,229 c -15.021,0 -27.222,12.201 -27.222,27.222 v 40.446 c 0,15.021 12.201,27.222 27.222,27.222 15.021,0 27.277,-12.201 27.277,-27.222 V 256.222 C -277.283,241.201 -289.54,229 -304.56,229 Z m 0,7.9675 c 10.744,0 19.31,8.5101 19.31,19.255 v 40.446 c 0,10.744 -8.5654,19.255 -19.31,19.255 -10.744,0 -19.255,-8.5101 -19.255,-19.255 v -40.446 c 0,-10.744 8.5101,-19.255 19.255,-19.255 z"
       id="path5728" />
    <path
       inkscape:connector-curvature="0"
       style="color:#000000;text-indent:0;text-transform:none;fill:#000000"
       d="m -361.49,229.03 a 3.9804,3.9804 0 0 0 -2.8192,1.8242 l -39.192,61.69 a 3.9804,3.9804 0 0 0 3.3719,6.0806 h 35.157 v 21.227 a 3.9804,3.9804 0 1 0 7.96,0 v -21.227 h 2.377 a 3.9804,3.9804 0 1 0 0,-7.96 h -2.377 v -57.655 a 3.9804,3.9804 0 0 0 -4.4775,-3.98 z m -3.4825,17.634 v 44.001 h -27.916 z"
       id="path5730" />
    <path
       d="m -228.85,229 c -15.021,0 -27.222,12.201 -27.222,27.222 v 40.446 c 0,15.021 12.201,27.222 27.222,27.222 15.021,0 27.277,-12.201 27.277,-27.222 V 256.222 C -201.573,241.201 -213.83,229 -228.85,229 Z m 0,7.9675 c 10.744,0 19.31,8.5101 19.31,19.255 v 40.446 c 0,10.744 -8.5655,19.255 -19.31,19.255 -10.7445,0 -19.255,-8.5101 -19.255,-19.255 v -40.446 c 0,-10.744 8.5101,-19.255 19.255,-19.255 z"
       inkscape:connector-curvature="0"
       style="color:#000000;text-indent:0;text-transform:none;fill:#000000"
       id="path5732" />
    <path
       d="m 191.83,520.42 h 14.362 l -11.391,26.091"
       inkscape:connector-curvature="0"
       style="fill:none;stroke:#000000;stroke-width:3;stroke-linecap:round;stroke-linejoin:round"
       id="path5734" />
    <path
       inkscape:connector-curvature="0"
       style="fill:none;stroke:#000000;stroke-width:3;stroke-linecap:round;stroke-linejoin:round"
       d="m 234.26,457.58 h 14.362 l -11.391,26.09"
       id="path5736" />
    <path
       d="m 214.66,456.08 c -4.7833,0 -8.6562,3.9041 -8.6562,8.6875 v 11.719 c 0,4.7834 3.8729,8.6875 8.6562,8.6875 4.7834,0 8.6875,-3.9041 8.6875,-8.6875 v -11.719 c 0,-4.7834 -3.9041,-8.6875 -8.6875,-8.6875 z m 0,3 c 3.1733,0 5.6875,2.5142 5.6875,5.6875 v 11.719 c 0,3.1733 -2.5142,5.6875 -5.6875,5.6875 -3.1732,0 -5.6562,-2.5142 -5.6562,-5.6875 v -11.719 c 0,-3.1733 2.483,-5.6875 5.6562,-5.6875 z"
       inkscape:connector-curvature="0"
       style="color:#000000;text-indent:0;text-transform:none;fill:#000000"
       id="rect5738" />
    <path
       d="m 165.16,456.08 c -4.7833,0 -8.6562,3.9041 -8.6562,8.6875 v 11.719 c 0,4.7834 3.8729,8.6875 8.6562,8.6875 4.7834,0 8.6875,-3.9041 8.6875,-8.6875 v -11.719 c 0,-4.7834 -3.9041,-8.6875 -8.6875,-8.6875 z m 0,3 c 3.1733,0 5.6875,2.5142 5.6875,5.6875 v 11.719 c 0,3.1733 -2.5142,5.6875 -5.6875,5.6875 -3.1732,0 -5.6562,-2.5142 -5.6562,-5.6875 v -11.719 c 0,-3.1733 2.483,-5.6875 5.6562,-5.6875 z"
       inkscape:connector-curvature="0"
       style="color:#000000;text-indent:0;text-transform:none;fill:#000000"
       id="rect5740" />
    <path
       d="m -1171.1,945.11 a 2.6676,2.6676 0 0 0 -2.1117,1.1113 l -7.9464,10.78 a 2.6676,2.6676 0 1 0 4.2788,3.1675 l 3.1675,-4.2789 v 38.232 a 2.6676,2.6676 0 1 0 5.3347,0 v -46.345 a 2.6676,2.6676 0 0 0 -2.7229,-2.6673 z"
       inkscape:connector-curvature="0"
       style="color:#000000;text-indent:0;text-transform:none;fill:#000000"
       id="path4250-1-3" />
    <path
       d="m -1144.4,945.12 c -8.5059,0 -15.448,6.8868 -15.448,15.393 v 20.894 c 0,8.5059 6.9424,15.393 15.448,15.393 8.5059,0 15.448,-6.8868 15.448,-15.393 v -20.894 c 0,-8.5059 -6.9424,-15.393 -15.448,-15.393 z m 0,5.3346 c 5.6428,0 10.114,4.4153 10.114,10.058 v 20.894 c 0,5.6428 -4.4708,10.058 -10.114,10.058 -5.6428,0 -10.114,-4.4153 -10.114,-10.058 v -20.894 c 0,-5.6428 4.4708,-10.058 10.114,-10.058 z"
       inkscape:connector-curvature="0"
       style="color:#000000;text-indent:0;text-transform:none;fill:#000000"
       id="rect5738-5" />
    <path
       d="m -1107.5,944.76 c -8.5059,0 -15.448,6.8868 -15.448,15.393 v 20.894 c 0,8.5059 6.9424,15.393 15.448,15.393 8.5059,0 15.448,-6.8868 15.448,-15.393 v -20.894 c 0,-8.506 -6.9424,-15.393 -15.448,-15.393 z m 0,5.3347 c 5.6428,0 10.114,4.4153 10.114,10.058 v 20.894 c 0,5.6427 -4.4708,10.058 -10.114,10.058 -5.6428,0 -10.114,-4.4153 -10.114,-10.058 v -20.894 c 0,-5.6428 4.4708,-10.058 10.114,-10.058 z"
       inkscape:connector-curvature="0"
       style="color:#000000;text-indent:0;text-transform:none;fill:#000000"
       id="rect5763" />
    <path
       inkscape:connector-curvature="0"
       inkscape:transform-center-y="-426.79377"
       inkscape:transform-center-x="933.15822"
       d="m -981.29,613.51 a 3.5004,3.5004 0 0 0 -1.8867,6.6884 l 109.11,49.911 a 3.5004,3.5004 0 1 0 2.9043,-6.3686 l -109.11,-49.911 A 3.5004,3.5004 0 0 0 -981.29,613.51 Z"
       style="color:#000000;text-indent:0;text-transform:none;fill:#000000"
       id="path5787" />
    <path
       inkscape:connector-curvature="0"
       inkscape:transform-center-y="-773.89442"
       inkscape:transform-center-x="673.81332"
       d="m -705.38,246.62 a 3.5004,3.5004 0 0 0 -4.4791,5.3134 l 78.781,90.494 a 3.5004,3.5004 0 1 0 5.2739,-4.6022 l -78.781,-90.494 A 3.5004,3.5004 0 0 0 -705.38,246.62 Z"
       style="color:#000000;text-indent:0;text-transform:none;fill:#000000"
       id="path5789" />
    <path
       inkscape:connector-curvature="0"
       inkscape:transform-center-y="-976.42875"
       inkscape:transform-center-x="315.47402"
       d="m -325.06,33.219 a 3.5004,3.5004 0 0 0 -6.2068,3.1256 l 36.88,114.17 a 3.5004,3.5004 0 1 0 6.6582,-2.1593 l -36.88,-114.18 a 3.5004,3.5004 0 0 0 -0.4514,-0.9664 z"
       style="color:#000000;text-indent:0;text-transform:none;fill:#000000"
       id="path5791" />
    <path
       inkscape:connector-curvature="0"
       inkscape:transform-center-y="-1026.1273"
       inkscape:transform-center-x="-0.023585956"
       d="m 9.3597,-18.399 a 3.5004,3.5004 0 0 0 -6.8671,1.0659 l -0.011,119.98 a 3.5004,3.5004 0 1 0 6.9995,-0.01 l 0.011,-119.98 a 3.5004,3.5004 0 0 0 -0.1324,-1.0584 z"
       style="color:#000000;text-indent:0;text-transform:none;fill:#000000"
       id="path5793" />
    <path
       inkscape:connector-curvature="0"
       inkscape:transform-center-y="-165.18705"
       inkscape:transform-center-x="1042.4061"
       d="m -1068.4,895.12 a 1.888,3.5004 9.0712 0 0 -0.5103,6.8713 l 63.927,10.069 a 1.888,3.5004 9.0712 1 0 1.0946,-6.9134 l -63.927,-10.069 a 1.888,3.5004 9.0712 0 0 -0.5847,0.042 z"
       style="color:#000000;text-indent:0;text-transform:none;fill:#000000"
       id="path5795" />
    <path
       inkscape:connector-curvature="0"
       inkscape:transform-center-y="-249.64231"
       inkscape:transform-center-x="1025.4638"
       d="m -1050.7,808.09 a 1.888,3.5004 13.749 0 0 -1.0689,6.8068 l 62.893,15.249 a 1.888,3.5004 13.749 1 0 1.6548,-6.8011 l -62.893,-15.249 a 1.888,3.5004 13.749 0 0 -0.5862,-0.01 z"
       style="color:#000000;text-indent:0;text-transform:none;fill:#000000"
       id="path5797" />
    <path
       inkscape:connector-curvature="0"
       inkscape:transform-center-y="-325.18917"
       inkscape:transform-center-x="1004.0664"
       d="m -1028.4,730.25 a 1.888,3.5004 18.012 0 0 -1.5721,6.7085 l 61.585,19.882 a 1.888,3.5004 18.012 1 0 2.1559,-6.6593 l -61.585,-19.882 a 1.888,3.5004 18.012 0 0 -0.5842,-0.049 z"
       style="color:#000000;text-indent:0;text-transform:none;fill:#000000"
       id="path5799" />
    <path
       inkscape:connector-curvature="0"
       inkscape:transform-center-y="-388.82606"
       inkscape:transform-center-x="981.17869"
       d="m -1004.6,664.7 a 1.888,3.5004 21.684 0 0 -1.9984,6.5941 l 60.185,23.786 a 1.888,3.5004 21.684 1 0 2.5779,-6.5076 l -60.185,-23.786 a 1.888,3.5004 21.684 0 0 -0.5798,-0.087 z"
       style="color:#000000;text-indent:0;text-transform:none;fill:#000000"
       id="path5801" />
    <path
       inkscape:connector-curvature="0"
       inkscape:transform-center-y="-531.33261"
       inkscape:transform-center-x="911.91157"
       d="m -932.71,517.97 a 1.888,3.5004 30.294 0 0 -2.9631,6.2206 l 55.946,32.528 a 1.888,3.5004 30.294 1 0 3.5231,-6.0483 l -55.946,-32.528 a 1.888,3.5004 30.294 0 0 -0.5603,-0.1725 z"
       style="color:#000000;text-indent:0;text-transform:none;fill:#000000"
       id="path5803" />
    <path
       inkscape:connector-curvature="0"
       inkscape:transform-center-y="-616.96881"
       inkscape:transform-center-x="856.29817"
       d="m -875.09,429.84 a 1.888,3.5004 35.84 0 0 -3.5504,5.9051 l 52.541,37.782 a 1.888,3.5004 35.84 1 0 4.0911,-5.6795 l -52.541,-37.782 a 1.888,3.5004 35.84 0 0 -0.5409,-0.2259 z"
       style="color:#000000;text-indent:0;text-transform:none;fill:#000000"
       id="path5805" />
    <path
       inkscape:connector-curvature="0"
       inkscape:transform-center-y="-694.89709"
       inkscape:transform-center-x="794.36465"
       d="m -810.98,349.68 a 1.888,3.5004 41.246 0 0 -4.0909,5.5444 l 48.748,42.564 a 1.888,3.5004 41.246 1 0 4.608,-5.2689 l -48.748,-42.564 a 1.888,3.5004 41.246 0 0 -0.5173,-0.2758 z"
       style="color:#000000;text-indent:0;text-transform:none;fill:#000000"
       id="path5807" />
    <path
       inkscape:connector-curvature="0"
       inkscape:transform-center-y="-746.16601"
       inkscape:transform-center-x="746.41375"
       d="m -761.37,296.96 a 1.888,3.5004 45.057 0 0 -4.4504,5.2601 l 45.811,45.71 a 1.888,3.5004 45.057 1 0 4.948,-4.9509 l -45.811,-45.71 a 1.888,3.5004 45.057 0 0 -0.4978,-0.3096 z"
       style="color:#000000;text-indent:0;text-transform:none;fill:#000000"
       id="path5809" />
    <path
       inkscape:connector-curvature="0"
       inkscape:transform-center-y="-846.16619"
       inkscape:transform-center-x="630.79324"
       d="m -641.83,194.21 a 1.888,3.5004 53.363 0 0 -5.1636,4.5621 l 38.727,51.849 a 1.888,3.5004 53.363 1 0 5.6113,-4.1842 l -38.727,-51.849 a 1.888,3.5004 53.363 0 0 -0.4478,-0.3782 z"
       style="color:#000000;text-indent:0;text-transform:none;fill:#000000"
       id="path5811" />
    <path
       inkscape:connector-curvature="0"
       inkscape:transform-center-y="-902.21965"
       inkscape:transform-center-x="547.62857"
       d="m -555.89,136.67 a 1.888,3.5004 58.81 0 0 -5.5733,4.0513 l 33.631,55.29 a 1.888,3.5004 58.81 1 0 5.9832,-3.6326 l -33.631,-55.29 a 1.888,3.5004 58.81 0 0 -0.4099,-0.4191 z"
       style="color:#000000;text-indent:0;text-transform:none;fill:#000000"
       id="path5813" />
    <path
       inkscape:connector-curvature="0"
       inkscape:transform-center-y="-946.46289"
       inkscape:transform-center-x="467.01752"
       d="m -472.63,91.3 a 1.888,3.5004 63.803 0 0 -5.9048,3.5509 l 28.69,58.008 a 1.888,3.5004 63.803 1 0 6.2766,-3.098 l -28.69,-58.007 a 1.888,3.5004 63.803 0 0 -0.3719,-0.4531 z"
       style="color:#000000;text-indent:0;text-transform:none;fill:#000000"
       id="path5815" />
    <path
       inkscape:connector-curvature="0"
       inkscape:transform-center-y="-976.67475"
       inkscape:transform-center-x="400.00472"
       d="m -403.43,60.358 a 1.888,3.5004 67.795 0 0 -6.1376,3.1313 l 24.583,59.864 a 1.888,3.5004 67.795 1 0 6.4771,-2.6536 l -24.583,-59.864 a 1.888,3.5004 67.795 0 0 -0.3394,-0.4779 z"
       style="color:#000000;text-indent:0;text-transform:none;fill:#000000"
       id="path5817" />
    <path
       inkscape:connector-curvature="0"
       inkscape:transform-center-y="-1027.0199"
       inkscape:transform-center-x="243.16165"
       d="m -241.53,8.9388 a 1.888,3.5004 76.746 0 0 -6.5501,2.138 l 14.969,62.96 a 1.888,3.5004 76.746 1 0 6.811,-1.6135 l -14.97,-62.961 a 1.888,3.5004 76.746 0 0 -0.2609,-0.5249 z"
       style="color:#000000;text-indent:0;text-transform:none;fill:#000000"
       id="path5819" />
    <path
       inkscape:connector-curvature="0"
       inkscape:transform-center-y="-1040.3554"
       inkscape:transform-center-x="177.64633"
       d="m -173.93,-4.6054 a 1.888,3.5004 80.377 0 0 -6.6723,1.719 l 10.952,63.782 a 1.888,3.5004 80.377 1 0 6.8996,-1.179 l -10.952,-63.782 a 1.888,3.5004 80.377 0 0 -0.2272,-0.5404 z"
       style="color:#000000;text-indent:0;text-transform:none;fill:#000000"
       id="path5821" />
    <path
       inkscape:connector-curvature="0"
       inkscape:transform-center-y="-1049.0131"
       inkscape:transform-center-x="116.05553"
       d="m -110.39,-13.338 a 1.888,3.5004 83.754 0 0 -6.762,1.323 l 7.1761,64.316 a 1.888,3.5004 83.754 1 0 6.9571,-0.7705 l -7.1762,-64.316 a 1.888,3.5004 83.754 0 0 -0.1949,-0.5529 z"
       style="color:#000000;text-indent:0;text-transform:none;fill:#000000"
       id="path5823" />
    <path
       inkscape:connector-curvature="0"
       inkscape:transform-center-y="-1053.7903"
       inkscape:transform-center-x="58.509766"
       d="m -51.038,-18.083 a 1.888,3.5004 86.889 0 0 -6.8243,0.9512 l 3.6479,64.612 a 1.888,3.5004 86.889 1 0 6.9888,-0.3889 l -3.6479,-64.612 a 1.888,3.5004 86.889 0 0 -0.1645,-0.5627 z"
       style="color:#000000;text-indent:0;text-transform:none;fill:#000000"
       id="path5825" />
    <path
       d="m -1090.6,-131.14 c -65.98,0 -119.09,53.114 -119.09,119.09 v 1374.5 c 0,65.979 53.114,119.09 119.09,119.09 h 665.31 c 29.008,0 39.174,-3.9241 56.5,-21.25 l 746.08,-745.9 c 23.302,-23.302 25.781,-31.589 25.781,-62.469 v -663.88 c 0,-65.979 -53.114,-119.09 -119.09,-119.09 z"
       inkscape:connector-curvature="0"
       style="fill:url(#linearGradient10503)"
       sodipodi:nodetypes="sssssssssss"
       id="path6078" />
  </g>
</svg>
